# xmcd CD database file
#
# Track frame offsets:
#	150
#	18944
#	32047
#	45805
#	61797
#	78560
#	91438
#	106958
#	122403
#	131927
#	147858
#	163413
#	178424
#	193630
#
# Disc length: 2729 seconds
#
# Revision: 0
# Processed by: cddbd v1.5.2PL0 Copyright (c) Steve Scherf et al.
# Submitted via: CDex 1.51
#
DISCID=bc0aa70e
DTITLE=get up and dance special nr,60 - get uip and dance special nr,60
DYEAR=2008
DGENRE=Country
TTITLE0=Beauty and the Beat
TTITLE1=Leave A Message
TTITLE2=Lord Have Mercy
TTITLE3=Old Tears
TTITLE4=Do You
TTITLE5=Pirate On The Run
TTITLE6=A Place To Run
TTITLE7=Pretty In Pink
TTITLE8=Sassafras Gap
TTITLE9=Summer Fly
TTITLE10=Texas Is Where If's At
TTITLE11=18 Yellow Rposes
TTITLE12=When I Think of You
TTITLE13=Winner At A Loosing Game
EXTD=YEAR: 2008
EXTT0=
EXTT1=
EXTT2=
EXTT3=
EXTT4=
EXTT5=
EXTT6=
EXTT7=
EXTT8=
EXTT9=
EXTT10=
EXTT11=
EXTT12=
EXTT13=
PLAYORDER=
